PathFileType	4	(X/Y/Z)	G:\TennisProject\Miami_Dimitrov_Sinner_masked_Sports2D\Miami_Dimitrov_Sinner_masked_Sports2D_m_person03.trc
DataRate	CameraRate	NumFrames	NumMarkers	Units	OrigDataRate	OrigDataStartFrame	OrigNumFrames
25	25	11	22	m	25	62	499
Frame#	Time	Hip			RHip			RKnee			RAnkle			RBigToe			RSmallToe			RHeel			LHip			LKnee			LAnkle			LBigToe			LSmallToe			LHeel			Neck			Head			Nose			RShoulder			RElbow			RWrist			LShoulder			LElbow			LWrist		
		X1	Y1	Z1	X2	Y2	Z2	X3	Y3	Z3	X4	Y4	Z4	X5	Y5	Z5	X6	Y6	Z6	X7	Y7	Z7	X8	Y8	Z8	X9	Y9	Z9	X10	Y10	Z10	X11	Y11	Z11	X12	Y12	Z12	X13	Y13	Z13	X14	Y14	Z14	X15	Y15	Z15	X16	Y16	Z16	X17	Y17	Z17	X18	Y18	Z18	X19	Y19	Z19	X20	Y20	Z20	X21	Y21	Z21	X22	Y22	Z22
62	2.48	9.570591805937715	2.0562012102021394	0.0	9.470084326691428	2.0483931740678623	0.0	9.4528499185719	1.68386974598989	0.0	9.45037471539778	1.3171868714653974	0.0	9.408904158190278	1.2240178844590361	0.0	9.365014654539797	1.2308297087504174	0.0	9.466688929420744	1.2551240967278594	0.0	9.669531088942355	2.0472621855053323	0.0	9.721804321374954	1.6880821237959265	0.0	9.758874424052133	1.325850227372894	0.0	9.77970013813073	1.2335108679145348	0.0	9.824412124918926	1.2421787971662357	0.0	9.715875443734646	1.2639004954113129	0.0	9.552641478520687	2.570829643460892	0.0	9.533589716848951	2.7965508174991913	0.0	9.533105124663262	2.674385056823003	0.0	9.385992384679218	2.479754054678536	0.0	9.368514665273514	2.274830263392868	0.0	9.494583744087743	2.1707968934368793	0.0	9.731752027342408	2.4901583599339823	0.0	9.770972767820377	2.280902209890004	0.0	9.662299199992969	2.1646725571252334	0.0
63	2.52	9.571425698261375	2.0558567639194893	0.0	9.46927515059645	2.0476803566526898	0.0	9.45318065902508	1.683472894340904	0.0	9.449562412941624	1.3162631761752859	0.0	9.409759211899155	1.2256589034508913	0.0	9.36735396152234	1.2333356863351936	0.0	9.469257166891722	1.2558552862666983	0.0	9.668110672317402	2.0472532164945196	0.0	9.71958742423825	1.6872527972335831	0.0	9.759714571184558	1.323580393460476	0.0	9.780629321914256	1.2376751097817476	0.0	9.82302138055602	1.2479543548669088	0.0	9.723386063325343	1.2661872321293317	0.0	9.552606133378346	2.5707194972084486	0.0	9.534065998694436	2.794811710245472	0.0	9.533512009243514	2.6733912799945343	0.0	9.384759968930632	2.478122471993747	0.0	9.368567470910687	2.273426299003899	0.0	9.495057556566307	2.168225543898237	0.0	9.730425191778906	2.4909815983573633	0.0	9.770530018221764	2.277907112470806	0.0	9.657099249724086	2.1643774549247428	0.0
64	2.56	9.571058170735533	2.0558794396435482	0.0	9.4679927254578	2.046634800075123	0.0	9.4526462826918	1.6829614661676684	0.0	9.448461181876638	1.3156127436444185	0.0	9.412496483023313	1.2284281637580856	0.0	9.369948030031617	1.2363546931547673	0.0	9.468920780372002	1.2567797807470598	0.0	9.667170522414084	2.04766930427007	0.0	9.717470300689449	1.686753498087712	0.0	9.758933301035867	1.3217300552569262	0.0	9.78242288847056	1.2421715372220365	0.0	9.822465927612958	1.252053245538297	0.0	9.731299307199238	1.268318914926026	0.0	9.552528115655775	2.568688242015354	0.0	9.535412640914982	2.792210269269995	0.0	9.534428581467866	2.6711121717685753	0.0	9.383565626291286	2.4764950891826474	0.0	9.369038344096365	2.272339145515775	0.0	9.497650236001872	2.166069259525979	0.0	9.729542259350406	2.491136243213928	0.0	9.769720145370895	2.2761562127762702	0.0	9.650581809971223	2.165155525836974	0.0
65	2.6	9.569395049251854	2.0571558628849282	0.0	9.467578894167083	2.047390554405428	0.0	9.451630771115907	1.6833802052464528	0.0	9.448190835368635	1.3160141419637243	0.0	9.412439114274452	1.2275741740794406	0.0	9.368212819551667	1.233607315189501	0.0	9.465187222217729	1.2559868380944839	0.0	9.667772050133475	2.048614487941436	0.0	9.71865433120248	1.6871374854315329	0.0	9.75823947475387	1.3236248653969998	0.0	9.781719316596618	1.2380521369840467	0.0	9.82543755935197	1.2460549513436485	0.0	9.724394350430547	1.2661710220941305	0.0	9.554395068739508	2.5678006209430646	0.0	9.535862784687588	2.792565597626948	0.0	9.53564228604623	2.67022189622456	0.0	9.385246132807804	2.477648728943155	0.0	9.369371447447671	2.2757420151352843	0.0	9.497541861190237	2.169005833374254	0.0	9.731104015389741	2.4907170940334042	0.0	9.769230629946971	2.2802735599035246	0.0	9.655897196770821	2.166033667109919	0.0
66	2.64	9.568101601041668	2.058212489625402	0.0	9.467869005229733	2.0480544605332365	0.0	9.450898909744973	1.6838108227163266	0.0	9.448180675779836	1.3162641348023119	0.0	9.41093808878976	1.2256404080542544	0.0	9.366892619032292	1.2303453184446154	0.0	9.462853777481008	1.2557090057731963	0.0	9.668521840872586	2.0492948713769743	0.0	9.719366687546657	1.6880100074002802	0.0	9.758321168350447	1.3262329480947805	0.0	9.779881660427133	1.2343698726119758	0.0	9.827070121406242	1.2416567286927223	0.0	9.717062354991342	1.2647594188740208	0.0	9.555827523405808	2.568956295886575	0.0	9.535467490468017	2.794304763043669	0.0	9.536039739336626	2.670260706900759	0.0	9.387899694711932	2.4786001284933383	0.0	9.370134261570593	2.27775271323918	0.0	9.496228390779082	2.1718601232701364	0.0	9.732709925964391	2.490277968838745	0.0	9.768414474714824	2.283882219404023	0.0	9.662023178689523	2.165226314514009	0.0
67	2.68	9.56799621273986	2.0580056815950725	0.0	9.468464693015195	2.0471770258553303	0.0	9.451087428477933	1.683410582619814	0.0	9.447873892021573	1.3155861627259346	0.0	9.411787723966778	1.2264809110188724	0.0	9.36949141772447	1.2328198986334469	0.0	9.464626990937557	1.2575830908703924	0.0	9.668246863455163	2.04943440518749	0.0	9.717086606208234	1.6884677557557	0.0	9.757689947660275	1.3254755417934172	0.0	9.780488066746106	1.2391854068671868	0.0	9.824393433779429	1.2473558792802613	0.0	9.72381733170008	1.2677386780727393	0.0	9.554322474059383	2.569531944650323	0.0	9.535532473593952	2.794527300557742	0.0	9.535247647969083	2.6703367987303874	0.0	9.388017175267775	2.4768354683783267	0.0	9.370688723736977	2.2740840452259428	0.0	9.49699805788391	2.1699519167146417	0.0	9.731913124660942	2.490181697191745	0.0	9.768005128995709	2.280795402603623	0.0	9.65632095912264	2.1635237852132487	0.0
68	2.72	9.568537919219699	2.0577797096911943	0.0	9.469145625626552	2.0465463111285938	0.0	9.451815847256148	1.6837272791826419	0.0	9.44763037269807	1.315155925364172	0.0	9.413268942419094	1.2279475717990558	0.0	9.370697449616827	1.2357914576469857	0.0	9.466798846303945	1.2589826165724394	0.0	9.66800011377952	2.049582933800058	0.0	9.71560810615933	1.6883111276456804	0.0	9.756848081458259	1.3240509674887335	0.0	9.781830777198941	1.243083856171767	0.0	9.822116504113827	1.251527125679707	0.0	9.730530505853244	1.2691674421551506	0.0	9.551861343855094	2.5691575346931494	0.0	9.536131638395338	2.7948154750922236	0.0	9.534953292356747	2.6716375705764674	0.0	9.386225800616455	2.4754178513466836	0.0	9.369827662560619	2.271028768221273	0.0	9.49833942567913	2.169457861282785	0.0	9.730739149513726	2.490033458482356	0.0	9.769240732812126	2.276453701852377	0.0	9.650232152096073	2.1635719834610283	0.0
69	2.7600000000000002	9.569452386965244	2.057777289775467	0.0	9.469625017738469	2.046923087681601	0.0	9.452424320899015	1.685421235888488	0.0	9.447591921811666	1.315648184809262	0.0	9.411688677306467	1.2266959362391472	0.0	9.3671317191254	1.2329721406517185	0.0	9.466008481442527	1.2578576510250001	0.0	9.669307156725134	2.049220758547074	0.0	9.718030754976493	1.6879447803178953	0.0	9.757173185686915	1.3255952716063286	0.0	9.781281241619217	1.2388947395905232	0.0	9.823686966728406	1.245645531194254	0.0	9.72313303963934	1.265731701779707	0.0	9.551594582641311	2.5703289829071263	0.0	9.536781277987984	2.7971573169377923	0.0	9.536484012836246	2.6747219816763623	0.0	9.385380794656086	2.4776435325390036	0.0	9.368324353080846	2.273184565825981	0.0	9.498040861466293	2.174656825736951	0.0	9.73142724291576	2.489263292457598	0.0	9.771086409109337	2.277996980344888	0.0	9.655715890888645	2.166130166880599	0.0
70	2.8000000000000003	9.57030465695938	2.056511183650708	0.0	9.470045052304135	2.046383881988649	0.0	9.452940133993456	1.6859146999791734	0.0	9.44786781497762	1.315943439239573	0.0	9.40882862809876	1.2249643375468362	0.0	9.364667696604954	1.22971888032448	0.0	9.464941292790483	1.2565213184778723	0.0	9.671107607682934	2.0475555973169794	0.0	9.720743676829711	1.6873641532031725	0.0	9.757415345187539	1.3271048524577584	0.0	9.781231239633003	1.235805406064534	0.0	9.824863835338759	1.2410119647860418	0.0	9.716068249423587	1.2640199597447408	0.0	9.55268071676724	2.572496106122548	0.0	9.537331325777254	2.798921293295747	0.0	9.538142163601535	2.676604182064997	0.0	9.385777981457089	2.480481672398258	0.0	9.367947980299794	2.275061137345656	0.0	9.498200757254818	2.1779003022633874	0.0	9.731748183072412	2.488533486307103	0.0	9.77164666589468	2.2811226687875856	0.0	9.661067878454308	2.1684393256045293	0.0
71	2.84	9.57031526788631	2.0546488920918287	0.0	9.47006244353094	2.0450365503903147	0.0	9.45310842864304	1.6845156819107643	0.0	9.448254334243968	1.3155722020281657	0.0	9.4086254575441	1.2262659111707788	0.0	9.367346319111226	1.2325855123693004	0.0	9.466501398748852	1.2572052390947628	0.0	9.670765459580485	2.046023533165812	0.0	9.719497701219638	1.6870045889860839	0.0	9.756765819760538	1.3255452656735305	0.0	9.783233144511817	1.2403936066411954	0.0	9.82217867907338	1.2460209501275836	0.0	9.72381548208401	1.2675620706522264	0.0	9.552599923463031	2.5726644913598524	0.0	9.537574013843182	2.7970449921866116	0.0	9.53748621415164	2.675303299388952	0.0	9.385757796075668	2.47965171027573	0.0	9.368568473583784	2.2736968234919095	0.0	9.500315669667087	2.1748979386935807	0.0	9.729509278087319	2.489081661909569	0.0	9.770746216207012	2.2794981343948666	0.0	9.65486112723152	2.1684573806680087	0.0
72	2.88	9.570105694255878	2.0549124727729073	0.0	9.469309935335643	2.0453704651736366	0.0	9.452135651194494	1.6840960904622602	0.0	9.447949594248657	1.3156294112391118	0.0	9.410060115940187	1.2283879485553406	0.0	9.36940792362549	1.2362364816999138	0.0	9.468306809196513	1.2581593237649766	0.0	9.668446410978824	2.046731442135014	0.0	9.717445622519879	1.6875055636537586	0.0	9.757010699984582	1.32426789538909	0.0	9.783895476002526	1.243886585200769	0.0	9.820417658866397	1.2500531656278957	0.0	9.731251759228307	1.2696738974006898	0.0	9.552243228577002	2.571339232721216	0.0	9.537742106164202	2.7937157712362364	0.0	9.535323184352363	2.6735962705643392	0.0	9.385138757715366	2.477614146185697	0.0	9.368521134917778	2.2747924555872774	0.0	9.500572774833875	2.172935616412486	0.0	9.727624121652713	2.490551424063847	0.0	9.769406254938504	2.2772117264352136	0.0	9.648967286008551	2.1675510314607283	0.0
